<svg width="18" height="12" viewBox="0 0 18 12" fill="none" xmlns="http://www.w3.org/2000/svg">
<path d="M9 9.40021C9.96818 9.40021 10.7898 9.0702 11.4648 8.41019C12.1398 7.75017 12.4773 6.94682 12.4773 6.00013C12.4773 5.05345 12.1398 4.25009 11.4648 3.59008C10.7898 2.93007 9.96818 2.60006 9 2.60006C8.03182 2.60006 7.21023 2.93007 6.53523 3.59008C5.86023 4.25009 5.52273 5.05345 5.52273 6.00013C5.52273 6.94682 5.86023 7.75017 6.53523 8.41019C7.21023 9.0702 8.03182 9.40021 9 9.40021ZM9 8.24018C8.35909 8.24018 7.81705 8.02351 7.37386 7.59017C6.93068 7.15683 6.70909 6.62681 6.70909 6.00013C6.70909 5.37345 6.93068 4.84344 7.37386 4.4101C7.81705 3.97675 8.35909 3.76008 9 3.76008C9.64091 3.76008 10.183 3.97675 10.6261 4.4101C11.0693 4.84344 11.2909 5.37345 11.2909 6.00013C11.2909 6.62681 11.0693 7.15683 10.6261 7.59017C10.183 8.02351 9.64091 8.24018 9 8.24018ZM9 12.0003C7.00909 12.0003 5.20909 11.4469 3.6 10.3402C1.99091 9.23354 0.790909 7.78684 0 6.00013C0.790909 4.21343 1.99091 2.76673 3.6 1.66004C5.20909 0.553345 7.00909 0 9 0C10.9909 0 12.7909 0.553345 14.4 1.66004C16.0091 2.76673 17.2091 4.21343 18 6.00013C17.2091 7.78684 16.0091 9.23354 14.4 10.3402C12.7909 11.4469 10.9909 12.0003 9 12.0003ZM9 10.8002C10.65 10.8002 12.167 10.3636 13.5511 9.49021C14.9352 8.61686 15.9886 7.4535 16.7114 6.00013C15.9886 4.54677 14.9352 3.38341 13.5511 2.51006C12.167 1.6367 10.65 1.20003 9 1.20003C7.35 1.20003 5.83295 1.6367 4.44886 2.51006C3.06477 3.38341 2.00455 4.54677 1.26818 6.00013C2.00455 7.4535 3.06477 8.61686 4.44886 9.49021C5.83295 10.3636 7.35 10.8002 9 10.8002Z" fill="#B0B0B0"/>
</svg>
