<svg width="18" height="17" viewBox="0 0 18 17" fill="none" xmlns="http://www.w3.org/2000/svg">
<path d="M12.0477 9.12273L11.1477 8.22273C11.5023 7.25455 11.3182 6.45 10.5955 5.80909C9.87273 5.16818 9.08864 5.00455 8.24318 5.31818L7.34318 4.41818C7.575 4.26818 7.83409 4.15909 8.12045 4.09091C8.40682 4.02273 8.7 3.98864 9 3.98864C9.96818 3.98864 10.7898 4.32614 11.4648 5.00114C12.1398 5.67614 12.4773 6.49773 12.4773 7.46591C12.4773 7.76591 12.4398 8.0625 12.3648 8.35568C12.2898 8.64886 12.1841 8.90454 12.0477 9.12273ZM14.6864 11.7614L13.8682 10.9432C14.5364 10.4523 15.1193 9.90341 15.617 9.29659C16.1148 8.68977 16.4795 8.07955 16.7114 7.46591C16.0295 5.95227 15.0068 4.75568 13.6432 3.87614C12.2795 2.99659 10.8 2.55682 9.20455 2.55682C8.63182 2.55682 8.04545 2.61136 7.44545 2.72045C6.84545 2.82955 6.375 2.95909 6.03409 3.10909L5.09318 2.14773C5.57045 1.92955 6.18068 1.73864 6.92386 1.575C7.66705 1.41136 8.39318 1.32955 9.10227 1.32955C11.0523 1.32955 12.8352 1.88523 14.4511 2.99659C16.067 4.10795 17.25 5.59773 18 7.46591C17.6455 8.33864 17.1886 9.13636 16.6295 9.85909C16.0705 10.5818 15.4227 11.2159 14.6864 11.7614ZM15.8727 16.3841L12.4364 13.0091C11.9591 13.2 11.4205 13.3466 10.8205 13.4489C10.2205 13.5511 9.61364 13.6023 9 13.6023C7.00909 13.6023 5.20227 13.0466 3.57955 11.9352C1.95682 10.8239 0.763636 9.33409 0 7.46591C0.272727 6.75682 0.651136 6.06477 1.13523 5.38977C1.61932 4.71477 2.20909 4.07045 2.90455 3.45682L0.327273 0.879546L1.18636 0L16.6705 15.4841L15.8727 16.3841ZM3.74318 4.31591C3.23864 4.68409 2.75114 5.16818 2.28068 5.76818C1.81023 6.36818 1.47273 6.93409 1.26818 7.46591C1.96364 8.97955 3.01023 10.1761 4.40795 11.0557C5.80568 11.9352 7.39091 12.375 9.16364 12.375C9.61364 12.375 10.0568 12.3477 10.4932 12.2932C10.9295 12.2386 11.2568 12.1568 11.475 12.0477L10.1659 10.7386C10.0159 10.8068 9.83182 10.858 9.61364 10.892C9.39545 10.9261 9.19091 10.9432 9 10.9432C8.04545 10.9432 7.22727 10.6091 6.54545 9.94091C5.86364 9.27273 5.52273 8.44773 5.52273 7.46591C5.52273 7.26136 5.53977 7.05682 5.57386 6.85227C5.60795 6.64773 5.65909 6.46364 5.72727 6.3L3.74318 4.31591Z" fill="#B0B0B0"/>
</svg>
