<svg width="12" height="16" viewBox="0 0 12 16" fill="none" xmlns="http://www.w3.org/2000/svg">
<path d="M1.125 15.75C0.8125 15.75 0.546875 15.6406 0.328125 15.4219C0.109375 15.2031 0 14.9375 0 14.625V6.4875C0 6.175 0.109375 5.90937 0.328125 5.69062C0.546875 5.47187 0.8125 5.3625 1.125 5.3625H2.4375V3.5625C2.4375 2.575 2.78437 1.73438 3.47812 1.04063C4.17188 0.346875 5.0125 0 6 0C6.9875 0 7.82812 0.346875 8.52188 1.04063C9.21562 1.73438 9.5625 2.575 9.5625 3.5625V5.3625H10.875C11.1875 5.3625 11.4531 5.47187 11.6719 5.69062C11.8906 5.90937 12 6.175 12 6.4875V14.625C12 14.9375 11.8906 15.2031 11.6719 15.4219C11.4531 15.6406 11.1875 15.75 10.875 15.75H1.125ZM1.125 14.625H10.875V6.4875H1.125V14.625ZM6 12C6.4 12 6.74063 11.8625 7.02188 11.5875C7.30313 11.3125 7.44375 10.9812 7.44375 10.5938C7.44375 10.2188 7.30313 9.87813 7.02188 9.57187C6.74063 9.26562 6.4 9.1125 6 9.1125C5.6 9.1125 5.25937 9.26562 4.97812 9.57187C4.69687 9.87813 4.55625 10.2188 4.55625 10.5938C4.55625 10.9812 4.69687 11.3125 4.97812 11.5875C5.25937 11.8625 5.6 12 6 12ZM3.5625 5.3625H8.4375V3.5625C8.4375 2.8875 8.2 2.3125 7.725 1.8375C7.25 1.3625 6.675 1.125 6 1.125C5.325 1.125 4.75 1.3625 4.275 1.8375C3.8 2.3125 3.5625 2.8875 3.5625 3.5625V5.3625ZM1.125 14.625V6.4875V14.625Z" fill="#2E2E2E"/>
</svg>
