<svg width="12" height="12" viewBox="0 0 12 12" fill="none" xmlns="http://www.w3.org/2000/svg">
<path d="M6 5.7971C5.175 5.7971 4.5 5.52657 3.975 4.98551C3.45 4.44444 3.1875 3.74879 3.1875 2.89855C3.1875 2.04831 3.45 1.35266 3.975 0.811594C4.5 0.270532 5.175 0 6 0C6.825 0 7.5 0.270532 8.025 0.811594C8.55 1.35266 8.8125 2.04831 8.8125 2.89855C8.8125 3.74879 8.55 4.44444 8.025 4.98551C7.5 5.52657 6.825 5.7971 6 5.7971ZM0 12V10.1836C0 9.69404 0.11875 9.27536 0.35625 8.92754C0.59375 8.57971 0.9 8.31562 1.275 8.13527C2.1125 7.74879 2.91563 7.45894 3.68438 7.2657C4.45313 7.07246 5.225 6.97585 6 6.97585C6.775 6.97585 7.54375 7.07569 8.30625 7.27536C9.06875 7.47504 9.86875 7.76167 10.7062 8.13527C11.0938 8.31562 11.4062 8.57971 11.6437 8.92754C11.8812 9.27536 12 9.69404 12 10.1836V12H0ZM1.125 10.8406H10.875V10.1836C10.875 9.97746 10.8156 9.781 10.6969 9.5942C10.5781 9.40741 10.4312 9.26892 10.2562 9.17874C9.45625 8.77939 8.725 8.50564 8.0625 8.35749C7.4 8.20934 6.7125 8.13527 6 8.13527C5.2875 8.13527 4.59375 8.20934 3.91875 8.35749C3.24375 8.50564 2.5125 8.77939 1.725 9.17874C1.55 9.26892 1.40625 9.40741 1.29375 9.5942C1.18125 9.781 1.125 9.97746 1.125 10.1836V10.8406ZM6 4.63768C6.4875 4.63768 6.89062 4.47343 7.20938 4.14493C7.52813 3.81643 7.6875 3.40097 7.6875 2.89855C7.6875 2.39614 7.52813 1.98068 7.20938 1.65217C6.89062 1.32367 6.4875 1.15942 6 1.15942C5.5125 1.15942 5.10938 1.32367 4.79062 1.65217C4.47187 1.98068 4.3125 2.39614 4.3125 2.89855C4.3125 3.40097 4.47187 3.81643 4.79062 4.14493C5.10938 4.47343 5.5125 4.63768 6 4.63768Z" fill="#2E2E2E"/>
</svg>
